<svg width="13" height="14" viewBox="0 0 13 14" fill="none" xmlns="http://www.w3.org/2000/svg">
<path d="M12.4876 1.74158V3.06038C12.4876 3.98719 11.7344 4.74039 10.8076 4.74039C10.004 4.74039 9.332 4.17479 9.1668 3.42159H8.0048V10.5868C8.8476 10.6792 9.5056 11.3932 9.5056 12.2584C9.5056 13.188 8.7524 13.9384 7.8256 13.9384H4.824C3.89439 13.9384 3.14399 13.188 3.14399 12.2584C3.14399 11.3932 3.7992 10.6792 4.64479 10.5868V3.42159H3.48C3.3148 4.17479 2.6428 4.74039 1.8392 4.74039C0.912395 4.74039 0.159195 3.98719 0.159195 3.06038V1.74158C0.159195 0.811985 0.912395 0.0615845 1.8392 0.0615845H10.8076C11.7344 0.0615845 12.4876 0.811985 12.4876 1.74158Z" fill="#639EFF"/>
</svg>
